<?xml version="1.0" encoding="UTF-8" standalone="no"?>
<svg
   xmlns:dc="http://purl.org/dc/elements/1.1/"
   xmlns:cc="http://creativecommons.org/ns#"
   xmlns:rdf="http://www.w3.org/1999/02/22-rdf-syntax-ns#"
   xmlns:svg="http://www.w3.org/2000/svg"
   xmlns="http://www.w3.org/2000/svg"
   xmlns:sodipodi="http://sodipodi.sourceforge.net/DTD/sodipodi-0.dtd"
   xmlns:inkscape="http://www.inkscape.org/namespaces/inkscape"
   height="128"
   width="128"
   version="1.1"
   id="svg14"
   sodipodi:docname="cv_icon_wrench.svg"
   inkscape:version="0.92.3 (2405546, 2018-03-11)"
   inkscape:export-filename="/home/sam/projects/xwords/Crosserville/ext/res/icon-128.png"
   inkscape:export-xdpi="96"
   inkscape:export-ydpi="96">
  <metadata
     id="metadata20">
    <rdf:RDF>
      <cc:Work
         rdf:about="">
        <dc:format>image/svg+xml</dc:format>
        <dc:type
           rdf:resource="http://purl.org/dc/dcmitype/StillImage" />
        <dc:title></dc:title>
      </cc:Work>
    </rdf:RDF>
  </metadata>
  <defs
     id="defs18" />
  <sodipodi:namedview
     pagecolor="#ffffff"
     bordercolor="#666666"
     borderopacity="1"
     objecttolerance="10"
     gridtolerance="10"
     guidetolerance="10"
     inkscape:pageopacity="0"
     inkscape:pageshadow="2"
     inkscape:window-width="1225"
     inkscape:window-height="868"
     id="namedview16"
     showgrid="false"
     inkscape:zoom="4.8828125"
     inkscape:cx="64.2048"
     inkscape:cy="64"
     inkscape:window-x="0"
     inkscape:window-y="0"
     inkscape:window-maximized="0"
     inkscape:current-layer="svg14" />
  <rect
     height="121.3018"
     y="3.3292084"
     width="121.26534"
     x="3.368988"
     id="rect2"
     style="fill:#ffffff;stroke-width:0.84224701" />
  <path
     d="M 3.7900484,3.7503938 H 34.106383 V 34.075846 H 3.7900484 Z M 64.422717,34.075846 H 94.739052 V 64.401297 H 64.422717 Z M 34.106383,64.401297 H 64.422717 V 94.726754 H 34.106383 Z M 94.739052,94.726754 H 125.05539 V 125.0522 H 94.739052 Z"
     id="path4"
     inkscape:connector-curvature="0"
     style="stroke-width:0.84224701" />
  <path
     d="M 3.3689882,34.075846 H 124.63433 M 3.3689882,64.401297 H 124.63433 M 3.3689882,94.726754 H 124.63433 M 34.106383,3.3292068 V 124.63101 M 64.422717,3.3292068 V 124.63101 M 94.739052,3.3292068 V 124.63101"
     id="path6"
     inkscape:connector-curvature="0"
     style="stroke:#000000;stroke-width:5.05348206" />
  <rect
     height="121.3018"
     y="3.3292084"
     width="121.26534"
     x="3.368988"
     id="rect8"
     style="fill:none;stroke:#969696;stroke-width:6.73797607;stroke-opacity:1" />
  <path
     d="m 110.8114,122.04196 c -2.10548,2.29364 0.1434,0.43529 -7.55162,7.1198 L 73.844289,100.73352 c 0.06333,-0.0302 -1.525616,-1.7171 -1.465647,-1.74486 2.089194,-1.132133 7.017468,-1.762184 8.933046,-3.13977 0.445456,-0.314876 0,0 0,0 1.898124,-1.452804 3.731017,-2.98656 5.433547,-4.687337 1.68746,-1.687524 3.217168,-3.518579 4.659266,-5.415993 0.399131,-0.523135 0.777627,-1.057204 1.160219,-1.59434 1.141254,-1.616471 2.204042,-3.299793 3.17583,-5.058377 0.164533,-0.295057 0.380989,-0.554566 0.542247,-0.859498 l 28.892493,30.382975 c -0.31323,0.1743 -2.45998,2.48274 -6.52888,5.9166 z"
     id="path4-3"
     inkscape:connector-curvature="0"
     sodipodi:nodetypes="cccccccccccccc"
     style="fill:#ff0000;fill-opacity:1;stroke-width:0.82639802" />
  <path
     inkscape:connector-curvature="0"
     d="M 62.579517,38.581446 43.738553,17.696308 c 3.340575,-0.81261 9.2214,-2.863023 12.710314,-2.863023 11.520986,0 22.149843,3.052931 30.297328,11.197294 11.653203,11.653206 15.629845,29.269911 10.128889,44.885944 -0.07013,0.196442 -0.15671,0.385272 -0.243086,0.573312 -0.122298,0.285174 -0.250768,0.571839 -0.353162,0.838602 -2.210789,5.657712 -5.419183,10.614354 -9.532641,14.72317 -3.806155,3.802431 -8.272025,6.834209 -13.27683,9.011341 -0.258579,0.111649 -0.521428,0.214064 -0.780565,0.308789 l -0.64594,0.250834 c -5.078232,2.000585 -10.429402,3.015695 -15.903585,3.015695 -11.496366,0 -22.295019,-4.469694 -30.407265,-12.585688 C 14.941082,76.261531 10.757303,53.64413 17.798882,39.333635 L 36.645265,60.42744 c 2.581118,2.745057 5.256715,4.960849 6.398054,4.886528 l 19.232198,1.15193 c 2.100669,-0.112318 3.77563,-1.791848 3.885722,-3.884088 l 0.288545,-18.826462 c 0.05305,-1.166582 -3.045567,-4.351311 -3.870267,-5.173902 z"
     id="path6-6"
     style="fill:#ff0000;fill-opacity:1;stroke-width:0.76444536"
     sodipodi:nodetypes="ccsccccccccscccccccc" />
</svg>
