<!DOCTYPE svg PUBLIC "-//W3C//DTD SVG 1.1//EN" "http://www.w3.org/Graphics/SVG/1.1/DTD/svg11.dtd">

<!-- Uploaded to: SVG Repo, www.svgrepo.com, Transformed by: SVG Repo Mixer Tools -->
<svg fill="#000000" version="1.1" id="Capa_1" xmlns="http://www.w3.org/2000/svg">

<path d="M300.071,218.817c14.12,14.121,19.586,34.331,14.93,53.313l-26.515-26.52c-1.077-1.082-2.467-1.639-4.09-1.57 l-32.132,1.717c-2.739,0.147-4.934,2.342-5.076,5.081l-1.712,32.127c-0.078,1.521,0.488,3.013,1.571,4.083l26.509,26.52 c-4.362,1.062-8.845,1.607-13.402,1.607c-15.07,0-29.238-5.88-39.911-16.53c-15.249-15.26-20.446-38.294-13.239-58.705 c2.835-8.051,7.292-15.159,13.233-21.113c4.988-4.976,10.831-8.934,17.376-11.784c7.165-3.122,14.777-4.709,22.625-4.709 C275.295,202.334,289.436,208.188,300.071,218.817z"/> <path d="M225.351,201.379c-1.753,1.062-3.459,2.194-5.103,3.401c-0.582,0.432-1.18,0.862-1.753,1.312 c-2.036,1.606-4.005,3.287-5.854,5.123c-1.584,1.597-3.044,3.271-4.456,4.988c-0.398,0.504-0.782,1.018-1.177,1.512 c-1.039,1.354-2.025,2.75-2.96,4.173c-0.314,0.488-0.65,0.961-0.956,1.454c-1.07,1.743-2.088,3.527-3.002,5.365L88.366,116.987 c0.076-0.037,0.136-0.095,0.209-0.129c2.528-1.37,4.929-2.928,7.247-4.595c0.539-0.381,1.053-0.785,1.58-1.187 c2.297-1.758,4.515-3.614,6.575-5.672c2.042-2.042,3.893-4.258,5.638-6.554c0.483-0.633,0.941-1.279,1.404-1.929 c1.381-1.956,2.667-3.993,3.843-6.121c0.199-0.357,0.461-0.671,0.656-1.04l110.91,110.904 C226.049,200.875,225.719,201.158,225.351,201.379z"/> <path d="M69.58,29.569L43.058,3.052c4.37-1.063,8.848-1.602,13.412-1.602c15.071,0,29.243,5.869,39.901,16.523 c15.244,15.244,20.446,38.289,13.25,58.717c-0.092,0.257-0.205,0.504-0.318,0.75c-0.16,0.373-0.328,0.748-0.462,1.097 c-2.892,7.401-7.089,13.885-12.47,19.26c-4.979,4.974-10.821,8.94-17.368,11.788c-0.338,0.146-0.682,0.28-1.021,0.404l-0.845,0.328 c-6.643,2.617-13.643,3.945-20.804,3.945c-15.039,0-29.165-5.847-39.777-16.464C2.44,83.682-3.033,63.472,1.624,44.484 l26.529,26.522c1.078,1.082,2.59,1.667,4.083,1.57l32.124-1.708c2.748-0.147,4.939-2.344,5.083-5.081l1.717-32.129 C71.229,32.132,70.659,30.645,69.58,29.569z"/>

</svg>